<svg width="174" height="206" viewBox="291 27 174 206" fill="none" xmlns="http://www.w3.org/2000/svg">
<mask id="mask0_434_7642" style="mask-type:alpha" maskUnits="userSpaceOnUse" x="0" y="0" width="465" height="233">
<path d="M0 26.1798C0 11.7211 6.78136 0 15.1466 0H449.853C458.219 0 465 11.7211 465 26.1798V206.82C465 221.279 447.075 233 438.71 233H15.1466C6.78135 233 0 221.279 0 206.82V26.1798Z" fill="#D9D9D9"/>
</mask>
<g mask="url(#mask0_434_7642)">
<path d="M464.995 129.342C464.756 128.831 464.949 128.229 465.457 127.978L475.33 123.103C476.266 122.641 477.443 123.021 477.888 123.963C478.333 124.903 477.841 125.963 476.85 126.307L466.385 129.937C465.843 130.125 465.236 129.858 464.995 129.342Z" fill="#BFD8B3"/>
<path d="M463.46 119.238C463.086 118.803 463.122 118.166 463.564 117.787L472.164 110.424C472.979 109.727 474.256 109.786 474.949 110.585C475.642 111.384 475.428 112.547 474.526 113.144L465.006 119.45C464.514 119.776 463.836 119.677 463.46 119.238Z" fill="#BFD8B3"/>
<path d="M459.149 109.912C458.693 109.597 458.588 108.965 458.932 108.466L465.621 98.7559C466.255 97.8357 467.5 97.5176 468.342 98.0939C469.184 98.6691 469.231 99.8669 468.492 100.714L460.686 109.664C460.282 110.127 459.607 110.229 459.149 109.912Z" fill="#BFD8B3"/>
<path d="M452.085 101.822C451.58 101.645 451.34 101.058 451.558 100.471L455.805 89.0615C456.208 87.9802 457.328 87.3118 458.262 87.6331C459.194 87.9535 459.505 89.1104 458.986 90.1506L453.501 101.138C453.217 101.707 452.594 102.001 452.085 101.822Z" fill="#BFD8B3"/>
<path d="M442.527 95.4932C441.975 95.4587 441.584 94.9582 441.653 94.3358L443.003 82.236C443.131 81.0893 444.084 80.1472 445.103 80.2061C446.12 80.2645 446.727 81.293 446.472 82.4314L443.773 94.4573C443.633 95.0796 443.083 95.5287 442.527 95.4932Z" fill="#BFD8B3"/>
<path d="M431.021 91.5255C430.383 91.6484 429.79 91.2913 429.685 90.6914L427.642 79.0272C427.449 77.9218 428.255 76.7753 429.43 76.5442C430.604 76.3129 431.598 77.1017 431.644 78.2353L432.131 90.2094C432.156 90.829 431.663 91.4025 431.021 91.5255Z" fill="#BFD8B3"/>
<path d="M418.542 90.6652C417.966 90.9025 417.275 90.678 416.973 90.1316L411.107 79.5084C410.551 78.5015 410.947 77.2662 412.006 76.8246C413.064 76.3831 414.288 76.9389 414.71 78.0002L419.176 89.2118C419.407 89.792 419.122 90.4271 418.542 90.6652Z" fill="#BFD8B3"/>
<path d="M404.949 93.2578C404.427 93.648 403.664 93.6135 403.213 93.1555L394.435 84.251C393.603 83.407 393.679 82.0796 394.639 81.3568C395.597 80.6346 396.989 80.8521 397.699 81.786L405.209 91.6508C405.597 92.1612 405.475 92.8657 404.949 93.2578Z" fill="#BFD8B3"/>
<path d="M391.47 99.2028C391.029 99.7648 390.247 99.9656 389.684 99.6356L378.737 93.2188C377.7 92.6106 377.473 91.2255 378.281 90.1868C379.088 89.1492 380.55 88.9414 381.486 89.6793L391.365 97.4738C391.876 97.8772 391.914 98.6376 391.47 99.2028Z" fill="#BFD8B3"/>
<path d="M379.266 108.29C378.953 109 378.213 109.442 377.569 109.274L365.06 105.997C363.875 105.687 363.324 104.334 363.897 103.023C364.468 101.715 365.891 101.059 367.004 101.534L378.759 106.547C379.367 106.806 379.582 107.575 379.266 108.29Z" fill="#BFD8B3"/>
<path d="M369.46 120.087C369.323 120.86 368.681 121.491 367.981 121.503L354.37 121.737C353.081 121.759 352.171 120.598 352.418 119.172C352.664 117.748 353.948 116.725 355.206 116.881L368.494 118.536C369.181 118.621 369.598 119.308 369.46 120.087Z" fill="#BFD8B3"/>
<path d="M362.95 134.036C363.023 134.747 362.523 135.463 361.789 135.653L347.52 139.351C346.167 139.701 344.883 138.92 344.743 137.61C344.603 136.302 345.668 135.079 347.037 134.893L361.497 132.929C362.245 132.827 362.877 133.32 362.95 134.036Z" fill="#BFD8B3"/>
<path d="M359.802 149.665C360.129 150.362 359.865 151.183 359.173 151.525L345.71 158.173C344.434 158.803 342.829 158.285 342.222 157.001C341.615 155.719 342.286 154.273 343.637 153.804L357.908 148.854C358.647 148.598 359.475 148.962 359.802 149.665Z" fill="#BFD8B3"/>
<path d="M360.595 165.095C361.101 165.684 361.053 166.546 360.455 167.058L348.82 177.019C347.717 177.963 345.989 177.884 345.051 176.802C344.115 175.722 344.404 174.147 345.623 173.34L358.503 164.808C359.17 164.367 360.087 164.501 360.595 165.095Z" fill="#BFD8B3"/>
<path d="M365.6 179.545C366.211 179.968 366.352 180.816 365.89 181.487L356.909 194.526C356.058 195.762 354.386 196.189 353.254 195.415C352.124 194.642 352.06 193.034 353.053 191.896L363.535 179.878C364.078 179.256 364.985 179.119 365.6 179.545Z" fill="#BFD8B3"/>
<path d="M374.771 192.279C375.445 192.515 375.765 193.299 375.474 194.081L369.812 209.294C369.275 210.735 367.781 211.627 366.537 211.198C365.293 210.771 364.879 209.229 365.571 207.842L372.883 193.191C373.262 192.433 374.093 192.041 374.771 192.279Z" fill="#BFD8B3"/>
<path d="M387.694 202.502C388.425 202.547 388.943 203.21 388.851 204.034L387.066 220.058C386.896 221.577 385.634 222.825 384.285 222.747C382.937 222.67 382.134 221.308 382.472 219.8L386.044 203.874C386.229 203.05 386.958 202.455 387.694 202.502Z" fill="#BFD8B3"/>
<path d="M403.579 209.337C404.418 209.175 405.198 209.645 405.336 210.434L408.023 225.783C408.278 227.237 407.218 228.746 405.671 229.051C404.126 229.355 402.818 228.318 402.758 226.826L402.118 211.069C402.085 210.254 402.734 209.499 403.579 209.337Z" fill="#BFD8B3"/>
<path d="M421.038 211.757C421.79 211.447 422.695 211.74 423.09 212.455L430.76 226.347C431.487 227.664 430.969 229.279 429.584 229.857C428.201 230.434 426.6 229.707 426.048 228.319L420.209 213.658C419.907 212.899 420.28 212.068 421.038 211.757Z" fill="#BFD8B3"/>
<path d="M440.148 209.292C440.827 208.785 441.818 208.83 442.405 209.425L453.815 221.001C454.897 222.099 454.798 223.824 453.551 224.764C452.305 225.703 450.496 225.42 449.572 224.206L439.81 211.381C439.305 210.718 439.463 209.802 440.148 209.292Z" fill="#BFD8B3"/>
<path d="M459.209 202.072C459.779 201.345 460.79 201.086 461.518 201.512L475.668 209.807C477.009 210.593 477.303 212.384 476.258 213.727C475.215 215.068 473.325 215.336 472.116 214.383L459.345 204.307C458.684 203.785 458.635 202.802 459.209 202.072Z" fill="#BFD8B3"/>
<path d="M452.292 54.0032C451.251 54.2038 450.284 53.6212 450.113 52.6423L446.78 33.6113C446.464 31.8077 447.778 29.9372 449.696 29.5601C451.612 29.1827 453.234 30.4697 453.309 32.3192L454.103 51.856C454.144 52.8669 453.34 53.8026 452.292 54.0032Z" fill="#BFD8B3"/>
<path d="M429.853 50.0275C428.923 50.4107 427.806 50.048 427.318 49.1654L417.843 32.0045C416.945 30.3781 417.585 28.3825 419.296 27.6692C421.004 26.9561 422.981 27.8539 423.664 29.5684L430.877 47.6797C431.25 48.6169 430.789 49.6428 429.853 50.0275Z" fill="#BFD8B3"/>
<path d="M405.215 52.3627C404.379 52.9869 403.159 52.9317 402.436 52.1989L388.393 37.951C387.063 36.6006 387.184 34.4768 388.719 33.3203C390.252 32.1648 392.479 32.5129 393.616 34.0072L405.63 49.7914C406.252 50.6082 406.057 51.7353 405.215 52.3627Z" fill="#BFD8B3"/>
<path d="M380.577 60.8531C379.878 61.7441 378.638 62.0624 377.746 61.5392L360.391 51.3663C358.747 50.402 358.386 48.2061 359.668 46.5593C360.947 44.9143 363.265 44.5849 364.748 45.7548L380.411 58.112C381.221 58.7515 381.281 59.957 380.577 60.8531Z" fill="#BFD8B3"/>
<path d="M357.985 75.0704C357.493 76.1862 356.33 76.8815 355.319 76.6169L335.661 71.4696C333.798 70.9816 332.933 68.8558 333.832 66.7965C334.729 64.7397 336.966 63.7098 338.715 64.4555L357.188 72.3318C358.144 72.7394 358.481 73.9477 357.985 75.0704Z" fill="#BFD8B3"/>
<path d="M339.377 94.2397C339.164 95.4448 338.164 96.4273 337.073 96.4463L315.866 96.8135C313.856 96.8482 312.438 95.0394 312.822 92.8175C313.206 90.5986 315.206 89.0045 317.166 89.2483L337.872 91.8235C338.943 91.9568 339.593 93.0267 339.377 94.2397Z" fill="#BFD8B3"/>
<path d="M326.289 117.343C326.402 118.442 325.63 119.548 324.496 119.842L302.443 125.556C300.353 126.097 298.368 124.89 298.151 122.866C297.934 120.845 299.581 118.954 301.697 118.666L324.044 115.631C325.2 115.474 326.177 116.236 326.289 117.343Z" fill="#BFD8B3"/>
<path d="M318.915 143.47C319.416 144.54 319.011 145.797 317.949 146.322L297.306 156.516C295.35 157.482 292.889 156.687 291.958 154.718C291.027 152.753 292.056 150.535 294.127 149.817L316.01 142.227C317.143 141.834 318.412 142.392 318.915 143.47Z" fill="#BFD8B3"/>
<path d="M318.23 169.563C319 170.459 318.926 171.772 318.016 172.551L300.31 187.71C298.632 189.146 296.002 189.025 294.576 187.378C293.15 185.735 293.591 183.339 295.446 182.11L315.046 169.127C316.061 168.456 317.456 168.66 318.23 169.563Z" fill="#BFD8B3"/>
<path d="M338.017 216.277C339.028 216.63 339.509 217.806 339.072 218.98L330.578 241.798C329.773 243.961 327.532 245.298 325.665 244.655C323.8 244.014 323.179 241.701 324.217 239.62L335.186 217.645C335.754 216.508 337.001 215.92 338.017 216.277Z" fill="#BFD8B3"/>
</g>
</svg>
